<svg viewBox="0 0 360 240" class="sl-poster" xmlns="http://www.w3.org/2000/svg"><defs><radialGradient id="sc-r-blue" cx=".38" cy=".32" r=".8" fx=".3" fy=".22"><stop offset="0" stop-color="#9cc8ff"/><stop offset=".5" stop-color="#2f6fe0"/><stop offset="1" stop-color="#163c94"/></radialGradient><linearGradient id="sc-l-blue" x1="0" y1="0" x2="0" y2="1"><stop offset="0" stop-color="#9cc8ff"/><stop offset=".55" stop-color="#2f6fe0"/><stop offset="1" stop-color="#163c94"/></linearGradient><radialGradient id="sc-r-green" cx=".38" cy=".32" r=".8" fx=".3" fy=".22"><stop offset="0" stop-color="#b4f29a"/><stop offset=".5" stop-color="#34a852"/><stop offset="1" stop-color="#14603a"/></radialGradient><linearGradient id="sc-l-green" x1="0" y1="0" x2="0" y2="1"><stop offset="0" stop-color="#b4f29a"/><stop offset=".55" stop-color="#34a852"/><stop offset="1" stop-color="#14603a"/></linearGradient><radialGradient id="sc-r-yellow" cx=".38" cy=".32" r=".8" fx=".3" fy=".22"><stop offset="0" stop-color="#fff3b0"/><stop offset=".5" stop-color="#f7bd24"/><stop offset="1" stop-color="#b06a08"/></radialGradient><linearGradient id="sc-l-yellow" x1="0" y1="0" x2="0" y2="1"><stop offset="0" stop-color="#fff3b0"/><stop offset=".55" stop-color="#f7bd24"/><stop offset="1" stop-color="#b06a08"/></linearGradient><radialGradient id="sc-r-red" cx=".38" cy=".32" r=".8" fx=".3" fy=".22"><stop offset="0" stop-color="#ffa48e"/><stop offset=".5" stop-color="#e03b2c"/><stop offset="1" stop-color="#861818"/></radialGradient><linearGradient id="sc-l-red" x1="0" y1="0" x2="0" y2="1"><stop offset="0" stop-color="#ffa48e"/><stop offset=".55" stop-color="#e03b2c"/><stop offset="1" stop-color="#861818"/></linearGradient><radialGradient id="sc-r-cream" cx=".38" cy=".32" r=".8" fx=".3" fy=".22"><stop offset="0" stop-color="#ffffff"/><stop offset=".5" stop-color="#f8ecd4"/><stop offset="1" stop-color="#cfae80"/></radialGradient><linearGradient id="sc-l-cream" x1="0" y1="0" x2="0" y2="1"><stop offset="0" stop-color="#ffffff"/><stop offset=".55" stop-color="#f8ecd4"/><stop offset="1" stop-color="#cfae80"/></linearGradient><radialGradient id="sc-r-terra" cx=".38" cy=".32" r=".8" fx=".3" fy=".22"><stop offset="0" stop-color="#ffb685"/><stop offset=".5" stop-color="#d2672f"/><stop offset="1" stop-color="#7a2e14"/></radialGradient><linearGradient id="sc-l-terra" x1="0" y1="0" x2="0" y2="1"><stop offset="0" stop-color="#ffb685"/><stop offset=".55" stop-color="#d2672f"/><stop offset="1" stop-color="#7a2e14"/></linearGradient><radialGradient id="sc-r-brown" cx=".38" cy=".32" r=".8" fx=".3" fy=".22"><stop offset="0" stop-color="#eaa066"/><stop offset=".5" stop-color="#a9521f"/><stop offset="1" stop-color="#57210c"/></radialGradient><linearGradient id="sc-l-brown" x1="0" y1="0" x2="0" y2="1"><stop offset="0" stop-color="#eaa066"/><stop offset=".55" stop-color="#a9521f"/><stop offset="1" stop-color="#57210c"/></linearGradient><radialGradient id="sc-r-honey" cx=".38" cy=".32" r=".8" fx=".3" fy=".22"><stop offset="0" stop-color="#ffd98a"/><stop offset=".5" stop-color="#ec8d1f"/><stop offset="1" stop-color="#8a420e"/></radialGradient><linearGradient id="sc-l-honey" x1="0" y1="0" x2="0" y2="1"><stop offset="0" stop-color="#ffd98a"/><stop offset=".55" stop-color="#ec8d1f"/><stop offset="1" stop-color="#8a420e"/></linearGradient><radialGradient id="sc-r-gold" cx=".38" cy=".32" r=".8" fx=".3" fy=".22"><stop offset="0" stop-color="#fff8c8"/><stop offset=".5" stop-color="#f9c73a"/><stop offset="1" stop-color="#a5620a"/></radialGradient><linearGradient id="sc-l-gold" x1="0" y1="0" x2="0" y2="1"><stop offset="0" stop-color="#fff8c8"/><stop offset=".55" stop-color="#f9c73a"/><stop offset="1" stop-color="#a5620a"/></linearGradient><radialGradient id="sc-r-egg" cx=".38" cy=".32" r=".8" fx=".3" fy=".22"><stop offset="0" stop-color="#ff9a84"/><stop offset=".5" stop-color="#d8262a"/><stop offset="1" stop-color="#780e16"/></radialGradient><linearGradient id="sc-l-egg" x1="0" y1="0" x2="0" y2="1"><stop offset="0" stop-color="#ff9a84"/><stop offset=".55" stop-color="#d8262a"/><stop offset="1" stop-color="#780e16"/></linearGradient><radialGradient id="sc-r-violet" cx=".38" cy=".32" r=".8" fx=".3" fy=".22"><stop offset="0" stop-color="#e2b8ff"/><stop offset=".5" stop-color="#8e44d6"/><stop offset="1" stop-color="#4a1a86"/></radialGradient><linearGradient id="sc-l-violet" x1="0" y1="0" x2="0" y2="1"><stop offset="0" stop-color="#e2b8ff"/><stop offset=".55" stop-color="#8e44d6"/><stop offset="1" stop-color="#4a1a86"/></linearGradient><radialGradient id="sc-r-dark" cx=".38" cy=".32" r=".8" fx=".3" fy=".22"><stop offset="0" stop-color="#6a4a5a"/><stop offset=".5" stop-color="#2c1622"/><stop offset="1" stop-color="#120810"/></radialGradient><linearGradient id="sc-l-dark" x1="0" y1="0" x2="0" y2="1"><stop offset="0" stop-color="#6a4a5a"/><stop offset=".55" stop-color="#2c1622"/><stop offset="1" stop-color="#120810"/></linearGradient><radialGradient id="sc-r-dgreen" cx=".38" cy=".32" r=".8" fx=".3" fy=".22"><stop offset="0" stop-color="#3f8a52"/><stop offset=".5" stop-color="#1d5a34"/><stop offset="1" stop-color="#0b2a18"/></radialGradient><linearGradient id="sc-l-dgreen" x1="0" y1="0" x2="0" y2="1"><stop offset="0" stop-color="#3f8a52"/><stop offset=".55" stop-color="#1d5a34"/><stop offset="1" stop-color="#0b2a18"/></linearGradient><radialGradient id="sc-r-wood" cx=".38" cy=".32" r=".8" fx=".3" fy=".22"><stop offset="0" stop-color="#f2c58e"/><stop offset=".5" stop-color="#c3864c"/><stop offset="1" stop-color="#7a4620"/></radialGradient><linearGradient id="sc-l-wood" x1="0" y1="0" x2="0" y2="1"><stop offset="0" stop-color="#f2c58e"/><stop offset=".55" stop-color="#c3864c"/><stop offset="1" stop-color="#7a4620"/></linearGradient><radialGradient id="sc-shadow"><stop offset="0" stop-color="#2a0f06" stop-opacity=".55"/><stop offset="1" stop-color="#2a0f06" stop-opacity="0"/></radialGradient><linearGradient id="sc-hl" x1="0" y1="0" x2="0" y2="1"><stop offset="0" stop-color="#fff" stop-opacity=".95"/><stop offset="1" stop-color="#fff" stop-opacity="0"/></linearGradient><radialGradient id="sc-fire" cx=".5" cy=".85" r=".85"><stop offset="0" stop-color="#fffbd6"/><stop offset=".3" stop-color="#ffd83a"/><stop offset=".65" stop-color="#ff7a1a"/><stop offset="1" stop-color="#c8261a"/></radialGradient><radialGradient id="sc-aura"><stop offset="0" stop-color="#ffe27a" stop-opacity=".95"/><stop offset=".55" stop-color="#ff9a2a" stop-opacity=".5"/><stop offset="1" stop-color="#ff6a1a" stop-opacity="0"/></radialGradient><radialGradient id="sc-gaura"><stop offset="0" stop-color="#fff6b0" stop-opacity=".95"/><stop offset=".5" stop-color="#ffd23a" stop-opacity=".45"/><stop offset="1" stop-color="#ffb000" stop-opacity="0"/></radialGradient><radialGradient id="sc-maura"><stop offset="0" stop-color="#fff" stop-opacity=".7"/><stop offset=".55" stop-color="#ffe9a8" stop-opacity=".25"/><stop offset="1" stop-color="#ffe9a8" stop-opacity="0"/></radialGradient><clipPath id="sc-c-pot"><path d="M30 32 C22 40 12 48 12 62 C12 78 26 90 38 90 L62 90 C74 90 88 78 88 62 C88 48 78 40 70 32 Z"/></clipPath><clipPath id="sc-c-glek"><path d="M40 14 L60 14 C60 21 58 25 58 30 C76 36 88 50 86 64 C84 80 72 90 62 90 L38 90 C28 90 16 80 14 64 C12 50 24 36 42 30 C42 25 40 21 40 14 Z"/></clipPath><clipPath id="sc-c-egg"><path d="M50 8 C69 8 84 34 84 58 C84 78 69 92 50 92 C31 92 16 78 16 58 C16 34 31 8 50 8 Z"/></clipPath><clipPath id="sc-c-bowl"><path d="M9 46 C11 70 29 84 50 84 C71 84 89 70 91 46 Z"/></clipPath><clipPath id="sc-c-mak"><path d="M8 42 A42 12 0 0 0 92 42 L76 86 C70 92 30 92 24 86 Z"/></clipPath><clipPath id="sc-c-dome"><path d="M12 90 L12 58 C12 32 29 17 50 17 C71 17 88 32 88 58 L88 90 Z"/></clipPath><radialGradient id="sl-p-bg" cx=".7" cy=".62" r=".9"><stop offset="0" stop-color="#ffe7a0"/><stop offset=".35" stop-color="#e8903a"/><stop offset=".75" stop-color="#8a3a14"/><stop offset="1" stop-color="#3a1206"/></radialGradient><radialGradient id="sl-p-vig" cx=".5" cy=".5" r=".72"><stop offset=".6" stop-color="#2a0a04" stop-opacity="0"/><stop offset="1" stop-color="#2a0a04" stop-opacity=".55"/></radialGradient></defs><rect width="360" height="240" fill="url(#sl-p-bg)"/><g fill="#fff6c8" opacity=".18"><path d="M250 150 L670 150 L667 200 Z"/><path d="M250 150 L645 294 L625 340 Z"/><path d="M250 150 L572 420 L537 457 Z"/><path d="M250 150 L460 514 L415 536 Z"/><path d="M250 150 L323 564 L273 569 Z"/><path d="M250 150 L177 564 L128 552 Z"/><path d="M250 150 L40 514 L-2 486 Z"/><path d="M250 150 L-72 420 L-102 380 Z"/><path d="M250 150 L-145 294 L-159 245 Z"/><path d="M250 150 L-170 150 L-167 100 Z"/><path d="M250 150 L-145 6 L-125 -40 Z"/><path d="M250 150 L-72 -120 L-37 -157 Z"/><path d="M250 150 L40 -214 L85 -236 Z"/><path d="M250 150 L177 -264 L227 -269 Z"/><path d="M250 150 L323 -264 L372 -252 Z"/><path d="M250 150 L460 -214 L502 -186 Z"/><path d="M250 150 L572 -120 L602 -80 Z"/><path d="M250 150 L645 6 L659 55 Z"/></g><rect x="0" y="196" width="360" height="14" fill="#b8763c" stroke="#2a1009" stroke-width="3"/><rect x="0" y="210" width="360" height="30" fill="#5a3018"/><svg x="14" y="150" width="52" height="52" viewBox="0 0 100 100" class="sl-trace sl-t1" xmlns="http://www.w3.org/2000/svg"><ellipse cx="50" cy="54" rx="40" ry="36" fill="#3a1a0c" opacity=".38"/><ellipse cx="50" cy="54" rx="34" ry="30" fill="none" stroke="#8a5a36" stroke-width="5" opacity=".55" stroke-dasharray="14 7"/><path d="M28 44 q8 -10 20 -10" fill="none" stroke="#e8c7a0" stroke-width="3" stroke-linecap="round" opacity=".35"/></svg><svg x="70" y="150" width="52" height="52" viewBox="0 0 100 100" class="sl-trace sl-tv" xmlns="http://www.w3.org/2000/svg"><defs><radialGradient id="sl-t2" cx=".38" cy=".3" r=".85"><stop offset="0" stop-color="#d9a77a"/><stop offset=".55" stop-color="#a8683c"/><stop offset="1" stop-color="#5e3216"/></radialGradient></defs><ellipse cx="50" cy="58" rx="42" ry="36" fill="#2a1009" opacity=".35"/><ellipse cx="50" cy="54" rx="42" ry="36" fill="url(#sl-t2)" stroke="#2a1009" stroke-width="3"/><ellipse cx="50" cy="54" rx="31" ry="26" fill="none" stroke="#fff" stroke-width="2" opacity=".3"/><path d="M22 42 q10 -14 28 -15" fill="none" stroke="#fff" stroke-width="4" stroke-linecap="round" opacity=".45"/><text x="50" y="69.8" text-anchor="middle" font-family="Onest, system-ui, sans-serif" font-weight="900" font-size="44" fill="#fff" stroke="#2a1009" stroke-width="5" paint-order="stroke" stroke-linejoin="round">×2</text></svg><svg x="126" y="146" width="58" height="58" viewBox="0 0 100 100" class="sl-trace sl-tv" xmlns="http://www.w3.org/2000/svg"><defs><radialGradient id="sl-t8" cx=".38" cy=".3" r=".85"><stop offset="0" stop-color="#ffb070"/><stop offset=".55" stop-color="#e2702a"/><stop offset="1" stop-color="#7a3010"/></radialGradient></defs><ellipse cx="50" cy="58" rx="42" ry="36" fill="#2a1009" opacity=".35"/><ellipse cx="50" cy="54" rx="42" ry="36" fill="url(#sl-t8)" stroke="#2a1009" stroke-width="3"/><ellipse cx="50" cy="54" rx="31" ry="26" fill="none" stroke="#fff" stroke-width="2" opacity=".3"/><path d="M22 42 q10 -14 28 -15" fill="none" stroke="#fff" stroke-width="4" stroke-linecap="round" opacity=".45"/><text x="50" y="69.8" text-anchor="middle" font-family="Onest, system-ui, sans-serif" font-weight="900" font-size="44" fill="#fff" stroke="#2a1009" stroke-width="5" paint-order="stroke" stroke-linejoin="round">×8</text></svg><svg x="186" y="140" width="66" height="66" viewBox="0 0 100 100" class="sl-trace sl-tv" xmlns="http://www.w3.org/2000/svg"><defs><radialGradient id="sl-t32" cx=".38" cy=".3" r=".85"><stop offset="0" stop-color="#ffe9a0"/><stop offset=".55" stop-color="#f2bc32"/><stop offset="1" stop-color="#9a5e08"/></radialGradient></defs><ellipse cx="50" cy="58" rx="42" ry="36" fill="#2a1009" opacity=".35"/><ellipse cx="50" cy="54" rx="42" ry="36" fill="url(#sl-t32)" stroke="#2a1009" stroke-width="3"/><ellipse cx="50" cy="54" rx="31" ry="26" fill="none" stroke="#fff" stroke-width="2" opacity=".3"/><path d="M22 42 q10 -14 28 -15" fill="none" stroke="#fff" stroke-width="4" stroke-linecap="round" opacity=".45"/><text x="50" y="67.0" text-anchor="middle" font-family="Onest, system-ui, sans-serif" font-weight="900" font-size="36" fill="#fff" stroke="#2a1009" stroke-width="5" paint-order="stroke" stroke-linejoin="round">×32</text></svg><svg x="258" y="128" width="88" height="88" viewBox="0 0 100 100" class="sl-trace sl-tv" xmlns="http://www.w3.org/2000/svg"><defs><radialGradient id="sl-t128" cx=".38" cy=".3" r=".85"><stop offset="0" stop-color="#ffffff"/><stop offset=".55" stop-color="#ffe066"/><stop offset="1" stop-color="#b8740a"/></radialGradient></defs><g class="sl-t-rays" opacity=".75"><path d="M50 54 L47 6 L53 6 Z" transform="rotate(0 50 54)" fill="#fff3a0"/><path d="M50 54 L47 6 L53 6 Z" transform="rotate(30 50 54)" fill="#fff3a0"/><path d="M50 54 L47 6 L53 6 Z" transform="rotate(60 50 54)" fill="#fff3a0"/><path d="M50 54 L47 6 L53 6 Z" transform="rotate(90 50 54)" fill="#fff3a0"/><path d="M50 54 L47 6 L53 6 Z" transform="rotate(120 50 54)" fill="#fff3a0"/><path d="M50 54 L47 6 L53 6 Z" transform="rotate(150 50 54)" fill="#fff3a0"/><path d="M50 54 L47 6 L53 6 Z" transform="rotate(180 50 54)" fill="#fff3a0"/><path d="M50 54 L47 6 L53 6 Z" transform="rotate(210 50 54)" fill="#fff3a0"/><path d="M50 54 L47 6 L53 6 Z" transform="rotate(240 50 54)" fill="#fff3a0"/><path d="M50 54 L47 6 L53 6 Z" transform="rotate(270 50 54)" fill="#fff3a0"/><path d="M50 54 L47 6 L53 6 Z" transform="rotate(300 50 54)" fill="#fff3a0"/><path d="M50 54 L47 6 L53 6 Z" transform="rotate(330 50 54)" fill="#fff3a0"/></g><ellipse cx="50" cy="58" rx="42" ry="36" fill="#2a1009" opacity=".35"/><ellipse cx="50" cy="54" rx="42" ry="36" fill="url(#sl-t128)" stroke="#2a1009" stroke-width="3"/><ellipse cx="50" cy="54" rx="31" ry="26" fill="none" stroke="#fff" stroke-width="2" opacity=".3"/><path d="M22 42 q10 -14 28 -15" fill="none" stroke="#fff" stroke-width="4" stroke-linecap="round" opacity=".45"/><text x="50" y="64.4" text-anchor="middle" font-family="Onest, system-ui, sans-serif" font-weight="900" font-size="29" fill="#fff" stroke="#2a1009" stroke-width="5" paint-order="stroke" stroke-linejoin="round">×128</text></svg><svg x="268" y="70" width="78" height="78" viewBox="0 0 100 100" class="sym sc-glek" xmlns="http://www.w3.org/2000/svg"><ellipse class="a-shadow" cx="50" cy="93" rx="30" ry="6" fill="url(#sc-shadow)"/><g class="a-bob"><path d="M58 22 C84 16 92 42 74 56" fill="none" stroke="#3b1b10" stroke-width="11" stroke-linejoin="round" stroke-linecap="round"/><path d="M58 22 C84 16 92 42 74 56" fill="none" stroke="url(#sc-l-blue)" stroke-width="5.5" stroke-linecap="round"/><path d="M40 14 L60 14 C60 21 58 25 58 30 C76 36 88 50 86 64 C84 80 72 90 62 90 L38 90 C28 90 16 80 14 64 C12 50 24 36 42 30 C42 25 40 21 40 14 Z" fill="url(#sc-r-cream)"/><g clip-path="url(#sc-c-glek)"><rect x="0" y="0" width="100" height="34" fill="url(#sc-l-blue)"/><path d="M0 34 L100 34" stroke="#ffd23a" stroke-width="3"/><path d="M0 37.5 L100 37.5" stroke="#e03b2c" stroke-width="1.6"/><g fill="#fff6e2"><circle cx="45" cy="22" r="1.6"/><circle cx="50" cy="25" r="1.6"/><circle cx="55" cy="22" r="1.6"/></g><rect x="0" y="85" width="100" height="10" fill="url(#sc-l-blue)"/><g stroke="#6e0c0c" stroke-width="1.5" stroke-linejoin="round"><path d="M0 0 C-7 -6.6499999999999995 -4.8999999999999995 -16.15 0 -19 C4.8999999999999995 -16.15 7 -6.6499999999999995 0 0 Z" transform="translate(50 68) rotate(-62)" fill="url(#sc-r-red)"/><circle cx="0" cy="-17" r="2.4" transform="translate(50 68) rotate(-62)" fill="#ffd23a" stroke-width="1"/><path d="M0 0 C-7 -6.6499999999999995 -4.8999999999999995 -16.15 0 -19 C4.8999999999999995 -16.15 7 -6.6499999999999995 0 0 Z" transform="translate(50 68) rotate(-31)" fill="url(#sc-r-red)"/><circle cx="0" cy="-17" r="2.4" transform="translate(50 68) rotate(-31)" fill="#ffd23a" stroke-width="1"/><path d="M0 0 C-7 -8.049999999999999 -4.8999999999999995 -19.55 0 -23 C4.8999999999999995 -19.55 7 -8.049999999999999 0 0 Z" transform="translate(50 68) rotate(0)" fill="url(#sc-r-red)"/><circle cx="0" cy="-21" r="2.4" transform="translate(50 68) rotate(0)" fill="#ffd23a" stroke-width="1"/><path d="M0 0 C-7 -6.6499999999999995 -4.8999999999999995 -16.15 0 -19 C4.8999999999999995 -16.15 7 -6.6499999999999995 0 0 Z" transform="translate(50 68) rotate(31)" fill="url(#sc-r-red)"/><circle cx="0" cy="-17" r="2.4" transform="translate(50 68) rotate(31)" fill="#ffd23a" stroke-width="1"/><path d="M0 0 C-7 -6.6499999999999995 -4.8999999999999995 -16.15 0 -19 C4.8999999999999995 -16.15 7 -6.6499999999999995 0 0 Z" transform="translate(50 68) rotate(62)" fill="url(#sc-r-red)"/><circle cx="0" cy="-17" r="2.4" transform="translate(50 68) rotate(62)" fill="#ffd23a" stroke-width="1"/></g><g stroke="#10306e" stroke-width="1.4" stroke-linejoin="round"><path d="M45 72 C35 76 24 72 18 60 C29 61 38 64 45 72 Z" fill="url(#sc-r-blue)"/><path d="M55 72 C65 76 76 72 82 60 C71 61 62 64 55 72 Z" fill="url(#sc-r-blue)"/><path d="M44 76 C36 82 27 82 21 77 C29 74 37 74 44 76 Z" fill="#34a852"/><path d="M56 76 C64 82 73 82 79 77 C71 74 63 74 56 76 Z" fill="#34a852"/></g><path d="M40 70 A10 10 0 0 1 60 70 Z" fill="#ffd23a" stroke="#8a420e" stroke-width="1.4"/><g fill="#2f6fe0"><circle cx="24" cy="50" r="2.2"/><circle cx="29" cy="45" r="2.2"/><circle cx="76" cy="50" r="2.2"/><circle cx="71" cy="45" r="2.2"/></g></g><path d="M40 14 L60 14 C60 21 58 25 58 30 C76 36 88 50 86 64 C84 80 72 90 62 90 L38 90 C28 90 16 80 14 64 C12 50 24 36 42 30 C42 25 40 21 40 14 Z" fill="none" stroke="#3b1b10" stroke-width="3" stroke-linejoin="round"/><path d="M36 13 L27 10 L35 18 Z" fill="url(#sc-l-gold)" stroke="#3b1b10" stroke-width="2.4" stroke-linejoin="round" stroke-linecap="round"/><rect x="35" y="7.5" width="30" height="8" rx="4" fill="url(#sc-l-gold)" stroke="#3b1b10" stroke-width="3" stroke-linejoin="round"/><path d="M21 54 C22 46 28 40 35 37 C30 44 27 51 26 60 Z" fill="#fff" opacity=".75"/><circle cx="27" cy="64" r="2" fill="#fff" opacity=".7"/><path d="M39 10.5 L53 10.5" stroke="#fff" stroke-width="1.8" stroke-linecap="round" opacity=".8"/><g transform="translate(29 47)"><g class="a-glint" opacity="0"><path d="M0 -11 C1 -3 3 -1 11 0 C3 1 1 3 0 11 C-1 3 -3 1 -11 0 C-3 -1 -1 -3 0 -11 Z" fill="#fff"/><circle r="2.6" fill="#fff"/></g></g></g></svg><svg x="8" y="96" width="60" height="60" viewBox="0 0 100 100" class="sym sc-kumanets" xmlns="http://www.w3.org/2000/svg"><ellipse class="a-shadow" cx="50" cy="93" rx="32" ry="6" fill="url(#sc-shadow)"/><g class="a-bob"><g transform="translate(50 91) scale(1.07) translate(-50 -91)"><path d="M38 84 L36 91 L64 91 L62 84 Z" fill="#8a420e" stroke="#3b1b10" stroke-width="3" stroke-linejoin="round"/><path d="M60 31 C72 20 82 26 78 38" fill="none" stroke="#3b1b10" stroke-width="9" stroke-linejoin="round" stroke-linecap="round"/><path d="M60 31 C72 20 82 26 78 38" fill="none" stroke="#ec8d1f" stroke-width="4.5" stroke-linejoin="round" stroke-linecap="round"/><path d="M42 31 L43 13 L57 13 L58 31 Z" fill="url(#sc-l-honey)" stroke="#3b1b10" stroke-width="3" stroke-linejoin="round"/><path fill-rule="evenodd" d="M50 26 A32 32 0 1 1 49.99 26 Z M50 46 A12 12 0 1 0 50.01 46 Z" fill="url(#sc-r-honey)" stroke="#3b1b10" stroke-width="3" stroke-linejoin="round"/><ellipse cx="50" cy="36.5" rx="3.6" ry="6.5" transform="rotate(22.5 50 58)" fill="#34a852" stroke="#0e4a28" stroke-width="1.2"/><circle cx="50" cy="35" r="2.4" transform="rotate(45 50 58)" fill="#fff6e2" stroke="#8a420e" stroke-width="1"/><ellipse cx="50" cy="36.5" rx="3.6" ry="6.5" transform="rotate(67.5 50 58)" fill="#34a852" stroke="#0e4a28" stroke-width="1.2"/><circle cx="50" cy="35" r="2.4" transform="rotate(90 50 58)" fill="#fff6e2" stroke="#8a420e" stroke-width="1"/><ellipse cx="50" cy="36.5" rx="3.6" ry="6.5" transform="rotate(112.5 50 58)" fill="#34a852" stroke="#0e4a28" stroke-width="1.2"/><circle cx="50" cy="35" r="2.4" transform="rotate(135 50 58)" fill="#fff6e2" stroke="#8a420e" stroke-width="1"/><ellipse cx="50" cy="36.5" rx="3.6" ry="6.5" transform="rotate(157.5 50 58)" fill="#34a852" stroke="#0e4a28" stroke-width="1.2"/><circle cx="50" cy="35" r="2.4" transform="rotate(180 50 58)" fill="#fff6e2" stroke="#8a420e" stroke-width="1"/><ellipse cx="50" cy="36.5" rx="3.6" ry="6.5" transform="rotate(202.5 50 58)" fill="#34a852" stroke="#0e4a28" stroke-width="1.2"/><circle cx="50" cy="35" r="2.4" transform="rotate(225 50 58)" fill="#fff6e2" stroke="#8a420e" stroke-width="1"/><ellipse cx="50" cy="36.5" rx="3.6" ry="6.5" transform="rotate(247.5 50 58)" fill="#34a852" stroke="#0e4a28" stroke-width="1.2"/><circle cx="50" cy="35" r="2.4" transform="rotate(270 50 58)" fill="#fff6e2" stroke="#8a420e" stroke-width="1"/><ellipse cx="50" cy="36.5" rx="3.6" ry="6.5" transform="rotate(292.5 50 58)" fill="#34a852" stroke="#0e4a28" stroke-width="1.2"/><circle cx="50" cy="35" r="2.4" transform="rotate(315 50 58)" fill="#fff6e2" stroke="#8a420e" stroke-width="1"/><ellipse cx="50" cy="36.5" rx="3.6" ry="6.5" transform="rotate(337.5 50 58)" fill="#34a852" stroke="#0e4a28" stroke-width="1.2"/><circle cx="50" cy="35" r="2.4" transform="rotate(360 50 58)" fill="#fff6e2" stroke="#8a420e" stroke-width="1"/><circle cx="50" cy="58" r="12" fill="none" stroke="#8a420e" stroke-width="3.5" opacity=".7"/><circle cx="50" cy="58" r="12" fill="none" stroke="#3b1b10" stroke-width="3" stroke-linejoin="round"/><rect x="39" y="8" width="22" height="8" rx="4" fill="url(#sc-l-green)" stroke="#3b1b10" stroke-width="3" stroke-linejoin="round"/><path d="M24 50 A27 27 0 0 1 42 32.5" fill="none" stroke="#fff" stroke-width="4" stroke-linecap="round" opacity=".65"/><path d="M58 66 A9 9 0 0 1 50 69" fill="none" stroke="#fff" stroke-width="2" stroke-linecap="round" opacity=".5"/><g transform="translate(27 42)"><g class="a-glint" opacity="0"><path d="M0 -11 C1 -3 3 -1 11 0 C3 1 1 3 0 11 C-1 3 -3 1 -11 0 C-3 -1 -1 -3 0 -11 Z" fill="#fff"/><circle r="2.6" fill="#fff"/></g></g></g></g></svg><svg x="176" y="74" width="64" height="64" viewBox="0 0 100 100" class="sym sc-furnace" xmlns="http://www.w3.org/2000/svg"><g class="a-aura"><circle cx="50" cy="56" r="48" fill="url(#sc-aura)"/></g><g class="a-rays"><path d="M50 56 L45.5 1 L54.5 1 Z" transform="rotate(15 50 56)" fill="#ff9a1e" opacity=".9"/><path d="M50 56 L47 10 L53 10 Z" transform="rotate(45 50 56)" fill="#ffd23a" opacity=".9"/><path d="M50 56 L45.5 1 L54.5 1 Z" transform="rotate(75 50 56)" fill="#ff9a1e" opacity=".9"/><path d="M50 56 L47 10 L53 10 Z" transform="rotate(105 50 56)" fill="#ffd23a" opacity=".9"/><path d="M50 56 L45.5 1 L54.5 1 Z" transform="rotate(135 50 56)" fill="#ff9a1e" opacity=".9"/><path d="M50 56 L47 10 L53 10 Z" transform="rotate(165 50 56)" fill="#ffd23a" opacity=".9"/><path d="M50 56 L45.5 1 L54.5 1 Z" transform="rotate(195 50 56)" fill="#ff9a1e" opacity=".9"/><path d="M50 56 L47 10 L53 10 Z" transform="rotate(225 50 56)" fill="#ffd23a" opacity=".9"/><path d="M50 56 L45.5 1 L54.5 1 Z" transform="rotate(255 50 56)" fill="#ff9a1e" opacity=".9"/><path d="M50 56 L47 10 L53 10 Z" transform="rotate(285 50 56)" fill="#ffd23a" opacity=".9"/><path d="M50 56 L45.5 1 L54.5 1 Z" transform="rotate(315 50 56)" fill="#ff9a1e" opacity=".9"/><path d="M50 56 L47 10 L53 10 Z" transform="rotate(345 50 56)" fill="#ffd23a" opacity=".9"/></g><ellipse class="a-shadow" cx="50" cy="93" rx="38" ry="6" fill="url(#sc-shadow)"/><g class="a-bob"><rect x="62" y="6" width="13" height="18" rx="2" fill="url(#sc-l-brown)" stroke="#3b1b10" stroke-width="3" stroke-linejoin="round"/><g class="a-fire2"><path d="M68.5 7 C63 3 66 -3 68 -6 C69 -2 72 -2 72 -5 C76 0 74 5 68.5 7 Z" fill="url(#sc-fire)" stroke="#8a1e0a" stroke-width="1.4"/></g><rect x="59" y="4" width="19" height="6" rx="3" fill="url(#sc-l-brown)" stroke="#3b1b10" stroke-width="3" stroke-linejoin="round"/><path d="M12 90 L12 58 C12 32 29 17 50 17 C71 17 88 32 88 58 L88 90 Z" fill="url(#sc-r-terra)"/><g clip-path="url(#sc-c-dome)" fill="none" stroke="#7a2e14" stroke-width="1.8" opacity=".55"><path d="M10 34 H90 M10 48 H90 M10 62 H90 M10 76 H90"/><path d="M38 20 V34 M62 20 V34 M28 34 V48 M50 34 V48 M72 34 V48 M20 48 V62 M80 48 V62 M20 62 V76 M80 62 V76 M24 76 V90 M76 76 V90"/></g><path d="M12 90 L12 58 C12 32 29 17 50 17 C71 17 88 32 88 58 L88 90 Z" fill="none" stroke="#3b1b10" stroke-width="3" stroke-linejoin="round"/><path d="M25 90 L25 67 C25 52 36 42 50 42 C64 42 75 52 75 67 L75 90" fill="none" stroke="#3b1b10" stroke-width="10"/><path d="M25 90 L25 67 C25 52 36 42 50 42 C64 42 75 52 75 67 L75 90" fill="none" stroke="url(#sc-l-yellow)" stroke-width="5.5"/><path d="M30 90 L30 67 C30 55 39 47 50 47 C61 47 70 55 70 67 L70 90 Z" fill="#2a0c06"/><ellipse cx="50" cy="86" rx="22" ry="10" fill="#ff7a1a" opacity=".6"/><g class="a-fire"><path d="M50 89 C36 89 33 78 37 70 C39 76 42 77 43 74 C40 66 44 58 49 52 C49 60 54 62 56 58 C58 64 64 68 63 76 C66 74 67 70 67 68 C70 78 64 89 50 89 Z" fill="url(#sc-fire)" stroke="#8a1e0a" stroke-width="1.4"/><path d="M50 89 C43 89 41 83 43 78 C45 81 47 81 47 78 C46 73 49 69 51 66 C52 71 55 72 56 70 C58 75 59 80 57 84 C55 88 53 89 50 89 Z" fill="#fff6c0"/></g><path d="M30 90 L70 90" stroke="#3b1b10" stroke-width="3" stroke-linejoin="round" stroke-linecap="round"/><path d="M19 50 C21 38 29 29 39 25" fill="none" stroke="#fff" stroke-width="3" stroke-linecap="round" opacity=".6"/><g fill="#ffe27a"><circle class="a-spark" cx="40" cy="56" r="1.8"/><circle class="a-spark" cx="58" cy="54" r="1.5" style="animation-delay:-.4s"/><circle class="a-spark" cx="50" cy="50" r="1.3" style="animation-delay:-.8s"/></g><g transform="translate(24 34)"><g class="a-glint" opacity="0"><path d="M0 -11 C1 -3 3 -1 11 0 C3 1 1 3 0 11 C-1 3 -3 1 -11 0 C-3 -1 -1 -3 0 -11 Z" fill="#fff"/><circle r="2.6" fill="#fff"/></g></g></g></svg><rect width="360" height="240" fill="url(#sl-p-vig)"/><svg x="40" y="-6" width="240" height="98" viewBox="0 0 560 230" class="sl-logo" xmlns="http://www.w3.org/2000/svg"><defs><linearGradient id="sl-lg-t" x1="0" y1="0" x2="0" y2="1"><stop offset="0" stop-color="#fff2b0"/><stop offset=".4" stop-color="#f9c73a"/><stop offset=".75" stop-color="#d07a1c"/><stop offset="1" stop-color="#8a420e"/></linearGradient><linearGradient id="sl-lg-c" x1="0" y1="0" x2="0" y2="1"><stop offset="0" stop-color="#ffd2a8"/><stop offset=".45" stop-color="#d2672f"/><stop offset="1" stop-color="#7a2e14"/></linearGradient><linearGradient id="sl-lg-h" x1="0" y1="0" x2="0" y2="1"><stop offset="0" stop-color="#fff" stop-opacity=".85"/><stop offset=".42" stop-color="#fff" stop-opacity=".15"/><stop offset=".43" stop-color="#fff" stop-opacity="0"/></linearGradient></defs><g text-anchor="middle" font-family="Onest, system-ui, sans-serif" font-weight="900"><text x="280" y="112" font-size="118" letter-spacing="2" transform="translate(0 7)" fill="#2a1009" stroke="#2a1009" stroke-width="20" stroke-linejoin="round">СЛІДИ</text><text x="280" y="112" font-size="118" letter-spacing="2" fill="url(#sl-lg-t)" stroke="#2a1009" stroke-width="12" stroke-linejoin="round" paint-order="stroke">СЛІДИ</text><text x="280" y="112" font-size="118" letter-spacing="2" fill="url(#sl-lg-h)">СЛІДИ</text><text x="280" y="194" font-size="64" letter-spacing="4" transform="translate(0 5)" fill="#2a1009" stroke="#2a1009" stroke-width="14" stroke-linejoin="round">НА ПОЛИЦІ</text><text x="280" y="194" font-size="64" letter-spacing="4" fill="url(#sl-lg-c)" stroke="#2a1009" stroke-width="9" stroke-linejoin="round" paint-order="stroke">НА ПОЛИЦІ</text></g><ellipse cx="34" cy="146" rx="11.700000000000001" ry="9" fill="#a8683c" stroke="#2a1009" stroke-width="3"/><ellipse cx="58" cy="174" rx="7.800000000000001" ry="6" fill="#c85a2c" stroke="#2a1009" stroke-width="3"/><ellipse cx="526" cy="146" rx="11.700000000000001" ry="9" fill="#f2bc32" stroke="#2a1009" stroke-width="3"/><ellipse cx="502" cy="174" rx="7.800000000000001" ry="6" fill="#ffe066" stroke="#2a1009" stroke-width="3"/></svg><rect x="1.5" y="1.5" width="357" height="237" rx="3" fill="none" stroke="#2a1009" stroke-width="3"/></svg>