<svg xmlns="http://www.w3.org/2000/svg" viewBox="0 0 600 600" width="600" height="600"><rect width="600" height="600" fill="#ffccbc"/><rect y="0" width="600" height="200" fill="#ffab91"/><circle cx="300" cy="330" r="110" fill="#ff7043"/><rect y="380" width="600" height="220" fill="#4fc3f7"/><path d="M20,430 q20,-10 40,0" stroke="#e1f5fe" stroke-width="5" fill="none"/><path d="M20,500 q20,-10 40,0" stroke="#e1f5fe" stroke-width="5" fill="none"/><path d="M20,560 q20,-10 40,0" stroke="#e1f5fe" stroke-width="5" fill="none"/><path d="M110,430 q20,-10 40,0" stroke="#e1f5fe" stroke-width="5" fill="none"/><path d="M110,500 q20,-10 40,0" stroke="#e1f5fe" stroke-width="5" fill="none"/><path d="M110,560 q20,-10 40,0" stroke="#e1f5fe" stroke-width="5" fill="none"/><path d="M200,430 q20,-10 40,0" stroke="#e1f5fe" stroke-width="5" fill="none"/><path d="M200,500 q20,-10 40,0" stroke="#e1f5fe" stroke-width="5" fill="none"/><path d="M200,560 q20,-10 40,0" stroke="#e1f5fe" stroke-width="5" fill="none"/><path d="M290,430 q20,-10 40,0" stroke="#e1f5fe" stroke-width="5" fill="none"/><path d="M290,500 q20,-10 40,0" stroke="#e1f5fe" stroke-width="5" fill="none"/><path d="M290,560 q20,-10 40,0" stroke="#e1f5fe" stroke-width="5" fill="none"/><path d="M380,430 q20,-10 40,0" stroke="#e1f5fe" stroke-width="5" fill="none"/><path d="M380,500 q20,-10 40,0" stroke="#e1f5fe" stroke-width="5" fill="none"/><path d="M380,560 q20,-10 40,0" stroke="#e1f5fe" stroke-width="5" fill="none"/><path d="M470,430 q20,-10 40,0" stroke="#e1f5fe" stroke-width="5" fill="none"/><path d="M470,500 q20,-10 40,0" stroke="#e1f5fe" stroke-width="5" fill="none"/><path d="M470,560 q20,-10 40,0" stroke="#e1f5fe" stroke-width="5" fill="none"/><path d="M560,430 q20,-10 40,0" stroke="#e1f5fe" stroke-width="5" fill="none"/><path d="M560,500 q20,-10 40,0" stroke="#e1f5fe" stroke-width="5" fill="none"/><path d="M560,560 q20,-10 40,0" stroke="#e1f5fe" stroke-width="5" fill="none"/><path d="M0,385 Q80,350 160,385Z M440,385 Q520,345 600,385Z" fill="#2e7d32"/><path d="M30,385 L34,300" stroke="#33691e" stroke-width="6"/><ellipse cx="34" cy="300" rx="7" ry="20" fill="#6d4c41"/><path d="M60,385 L64,300" stroke="#33691e" stroke-width="6"/><ellipse cx="64" cy="300" rx="7" ry="20" fill="#6d4c41"/><path d="M520,385 L524,300" stroke="#33691e" stroke-width="6"/><ellipse cx="524" cy="300" rx="7" ry="20" fill="#6d4c41"/><path d="M560,385 L564,300" stroke="#33691e" stroke-width="6"/><ellipse cx="564" cy="300" rx="7" ry="20" fill="#6d4c41"/><path d="M120,180 Q240,140 300,170 Q380,130 520,150 Q390,190 330,200 Q300,215 270,200 Q200,215 120,180Z" fill="#ffffff" stroke="#212121" stroke-width="4"/><path d="M120,180 Q170,170 200,185 Q160,195 120,180Z M520,150 Q470,150 440,165 Q490,170 520,150Z" fill="#212121"/><path d="M300,170 Q330,110 380,100" stroke="#ffffff" stroke-width="14" fill="none"/><circle cx="385" cy="100" r="14" fill="#fff"/><path d="M395,95 L460,110 L396,108Z" fill="#e53935"/><path d="M300,205 L250,280 M308,205 L262,285" stroke="#e53935" stroke-width="6"/></svg>
