<svg xmlns="http://www.w3.org/2000/svg" viewBox="0 0 600 600" width="600" height="600"><rect width="600" height="600" fill="#ffe08a"/><circle cx="0" cy="0" r="16" fill="#ffc94a"/><circle cx="0" cy="80" r="16" fill="#ffc94a"/><circle cx="0" cy="160" r="16" fill="#ffc94a"/><circle cx="0" cy="240" r="16" fill="#ffc94a"/><circle cx="0" cy="320" r="16" fill="#ffc94a"/><circle cx="0" cy="400" r="16" fill="#ffc94a"/><circle cx="0" cy="480" r="16" fill="#ffc94a"/><circle cx="0" cy="560" r="16" fill="#ffc94a"/><circle cx="80" cy="0" r="16" fill="#ffc94a"/><circle cx="80" cy="80" r="16" fill="#ffc94a"/><circle cx="80" cy="160" r="16" fill="#ffc94a"/><circle cx="80" cy="240" r="16" fill="#ffc94a"/><circle cx="80" cy="320" r="16" fill="#ffc94a"/><circle cx="80" cy="400" r="16" fill="#ffc94a"/><circle cx="80" cy="480" r="16" fill="#ffc94a"/><circle cx="80" cy="560" r="16" fill="#ffc94a"/><circle cx="160" cy="0" r="16" fill="#ffc94a"/><circle cx="160" cy="80" r="16" fill="#ffc94a"/><circle cx="160" cy="160" r="16" fill="#ffc94a"/><circle cx="160" cy="240" r="16" fill="#ffc94a"/><circle cx="160" cy="320" r="16" fill="#ffc94a"/><circle cx="160" cy="400" r="16" fill="#ffc94a"/><circle cx="160" cy="480" r="16" fill="#ffc94a"/><circle cx="160" cy="560" r="16" fill="#ffc94a"/><circle cx="240" cy="0" r="16" fill="#ffc94a"/><circle cx="240" cy="80" r="16" fill="#ffc94a"/><circle cx="240" cy="160" r="16" fill="#ffc94a"/><circle cx="240" cy="240" r="16" fill="#ffc94a"/><circle cx="240" cy="320" r="16" fill="#ffc94a"/><circle cx="240" cy="400" r="16" fill="#ffc94a"/><circle cx="240" cy="480" r="16" fill="#ffc94a"/><circle cx="240" cy="560" r="16" fill="#ffc94a"/><circle cx="320" cy="0" r="16" fill="#ffc94a"/><circle cx="320" cy="80" r="16" fill="#ffc94a"/><circle cx="320" cy="160" r="16" fill="#ffc94a"/><circle cx="320" cy="240" r="16" fill="#ffc94a"/><circle cx="320" cy="320" r="16" fill="#ffc94a"/><circle cx="320" cy="400" r="16" fill="#ffc94a"/><circle cx="320" cy="480" r="16" fill="#ffc94a"/><circle cx="320" cy="560" r="16" fill="#ffc94a"/><circle cx="400" cy="0" r="16" fill="#ffc94a"/><circle cx="400" cy="80" r="16" fill="#ffc94a"/><circle cx="400" cy="160" r="16" fill="#ffc94a"/><circle cx="400" cy="240" r="16" fill="#ffc94a"/><circle cx="400" cy="320" r="16" fill="#ffc94a"/><circle cx="400" cy="400" r="16" fill="#ffc94a"/><circle cx="400" cy="480" r="16" fill="#ffc94a"/><circle cx="400" cy="560" r="16" fill="#ffc94a"/><circle cx="480" cy="0" r="16" fill="#ffc94a"/><circle cx="480" cy="80" r="16" fill="#ffc94a"/><circle cx="480" cy="160" r="16" fill="#ffc94a"/><circle cx="480" cy="240" r="16" fill="#ffc94a"/><circle cx="480" cy="320" r="16" fill="#ffc94a"/><circle cx="480" cy="400" r="16" fill="#ffc94a"/><circle cx="480" cy="480" r="16" fill="#ffc94a"/><circle cx="480" cy="560" r="16" fill="#ffc94a"/><circle cx="560" cy="0" r="16" fill="#ffc94a"/><circle cx="560" cy="80" r="16" fill="#ffc94a"/><circle cx="560" cy="160" r="16" fill="#ffc94a"/><circle cx="560" cy="240" r="16" fill="#ffc94a"/><circle cx="560" cy="320" r="16" fill="#ffc94a"/><circle cx="560" cy="400" r="16" fill="#ffc94a"/><circle cx="560" cy="480" r="16" fill="#ffc94a"/><circle cx="560" cy="560" r="16" fill="#ffc94a"/><defs><clipPath id="egg"><ellipse cx="300" cy="310" rx="200" ry="260"/></clipPath></defs><g clip-path="url(#egg)"><rect width="600" height="600" fill="#b3122a"/><rect y="230" width="600" height="160" fill="#111"/><rect y="236" width="600" height="8" fill="#ffd23f"/><rect y="376" width="600" height="8" fill="#ffd23f"/><polygon points="126.0,310.0 99.1,317.9 112.5,342.5 87.9,329.1 80.0,356.0 72.1,329.1 47.5,342.5 60.9,317.9 34.0,310.0 60.9,302.1 47.5,277.5 72.1,290.9 80.0,264.0 87.9,290.9 112.5,277.5 99.1,302.1" fill="#ffd23f"/><circle cx="80" cy="310" r="10" fill="#b3122a"/><polygon points="206.0,310.0 179.1,317.9 192.5,342.5 167.9,329.1 160.0,356.0 152.1,329.1 127.5,342.5 140.9,317.9 114.0,310.0 140.9,302.1 127.5,277.5 152.1,290.9 160.0,264.0 167.9,290.9 192.5,277.5 179.1,302.1" fill="#ffd23f"/><circle cx="160" cy="310" r="10" fill="#b3122a"/><polygon points="286.0,310.0 259.1,317.9 272.5,342.5 247.9,329.1 240.0,356.0 232.1,329.1 207.5,342.5 220.9,317.9 194.0,310.0 220.9,302.1 207.5,277.5 232.1,290.9 240.0,264.0 247.9,290.9 272.5,277.5 259.1,302.1" fill="#ffd23f"/><circle cx="240" cy="310" r="10" fill="#b3122a"/><polygon points="366.0,310.0 339.1,317.9 352.5,342.5 327.9,329.1 320.0,356.0 312.1,329.1 287.5,342.5 300.9,317.9 274.0,310.0 300.9,302.1 287.5,277.5 312.1,290.9 320.0,264.0 327.9,290.9 352.5,277.5 339.1,302.1" fill="#ffd23f"/><circle cx="320" cy="310" r="10" fill="#b3122a"/><polygon points="446.0,310.0 419.1,317.9 432.5,342.5 407.9,329.1 400.0,356.0 392.1,329.1 367.5,342.5 380.9,317.9 354.0,310.0 380.9,302.1 367.5,277.5 392.1,290.9 400.0,264.0 407.9,290.9 432.5,277.5 419.1,302.1" fill="#ffd23f"/><circle cx="400" cy="310" r="10" fill="#b3122a"/><polygon points="526.0,310.0 499.1,317.9 512.5,342.5 487.9,329.1 480.0,356.0 472.1,329.1 447.5,342.5 460.9,317.9 434.0,310.0 460.9,302.1 447.5,277.5 472.1,290.9 480.0,264.0 487.9,290.9 512.5,277.5 499.1,302.1" fill="#ffd23f"/><circle cx="480" cy="310" r="10" fill="#b3122a"/><path d="M30,230 L60,170 L90,230Z" fill="#ffd23f"/><path d="M30,390 L60,450 L90,390Z" fill="#ffd23f"/><path d="M90,230 L120,170 L150,230Z" fill="#ffd23f"/><path d="M90,390 L120,450 L150,390Z" fill="#ffd23f"/><path d="M150,230 L180,170 L210,230Z" fill="#ffd23f"/><path d="M150,390 L180,450 L210,390Z" fill="#ffd23f"/><path d="M210,230 L240,170 L270,230Z" fill="#ffd23f"/><path d="M210,390 L240,450 L270,390Z" fill="#ffd23f"/><path d="M270,230 L300,170 L330,230Z" fill="#ffd23f"/><path d="M270,390 L300,450 L330,390Z" fill="#ffd23f"/><path d="M330,230 L360,170 L390,230Z" fill="#ffd23f"/><path d="M330,390 L360,450 L390,390Z" fill="#ffd23f"/><path d="M390,230 L420,170 L450,230Z" fill="#ffd23f"/><path d="M390,390 L420,450 L450,390Z" fill="#ffd23f"/><path d="M450,230 L480,170 L510,230Z" fill="#ffd23f"/><path d="M450,390 L480,450 L510,390Z" fill="#ffd23f"/><path d="M510,230 L540,170 L570,230Z" fill="#ffd23f"/><path d="M510,390 L540,450 L570,390Z" fill="#ffd23f"/><rect y="60" width="600" height="18" fill="#ffffff"/><rect y="540" width="600" height="18" fill="#ffffff"/><circle cx="40" cy="120" r="12" fill="#fff"/><circle cx="80" cy="500" r="12" fill="#fff"/><circle cx="120" cy="120" r="12" fill="#fff"/><circle cx="160" cy="500" r="12" fill="#fff"/><circle cx="200" cy="120" r="12" fill="#fff"/><circle cx="240" cy="500" r="12" fill="#fff"/><circle cx="280" cy="120" r="12" fill="#fff"/><circle cx="320" cy="500" r="12" fill="#fff"/><circle cx="360" cy="120" r="12" fill="#fff"/><circle cx="400" cy="500" r="12" fill="#fff"/><circle cx="440" cy="120" r="12" fill="#fff"/><circle cx="480" cy="500" r="12" fill="#fff"/><circle cx="520" cy="120" r="12" fill="#fff"/><circle cx="560" cy="500" r="12" fill="#fff"/></g><ellipse cx="300" cy="310" rx="200" ry="260" fill="none" stroke="#5a0e12" stroke-width="8"/></svg>
